<?xml version="1.0" encoding="UTF-8" standalone="no"?>
<!-- Created with Inkscape (http://www.inkscape.org/) -->

<svg
   xmlns:osb="http://www.openswatchbook.org/uri/2009/osb"
   xmlns:dc="http://purl.org/dc/elements/1.1/"
   xmlns:cc="http://creativecommons.org/ns#"
   xmlns:rdf="http://www.w3.org/1999/02/22-rdf-syntax-ns#"
   xmlns:svg="http://www.w3.org/2000/svg"
   xmlns="http://www.w3.org/2000/svg"
   xmlns:xlink="http://www.w3.org/1999/xlink"
   xmlns:sodipodi="http://sodipodi.sourceforge.net/DTD/sodipodi-0.dtd"
   xmlns:inkscape="http://www.inkscape.org/namespaces/inkscape"
   width="256"
   height="256"
   viewBox="0 0 67.733332 67.733335"
   version="1.1"
   id="svg8"
   inkscape:version="0.92.3 (2405546, 2018-03-11)"
   sodipodi:docname="MAPeD.svg"
   inkscape:export-filename="B:\my_projects\crossdev\GITHUB\src\MAPeD\src\icon\MAPeD.png"
   inkscape:export-xdpi="96"
   inkscape:export-ydpi="96">
  <defs
     id="defs2">
    <linearGradient
       inkscape:collect="always"
       id="linearGradient8295">
      <stop
         style="stop-color:#cceff6;stop-opacity:1;"
         offset="0"
         id="stop8291" />
      <stop
         style="stop-color:#cceff6;stop-opacity:0.56481481"
         offset="1"
         id="stop8293" />
    </linearGradient>
    <linearGradient
       id="linearGradient7389"
       osb:paint="solid">
      <stop
         style="stop-color:#ffb401;stop-opacity:1;"
         offset="0"
         id="stop7387" />
    </linearGradient>
    <linearGradient
       id="linearGradient7114"
       osb:paint="solid">
      <stop
         style="stop-color:#ccf6de;stop-opacity:1;"
         offset="0"
         id="stop7112" />
    </linearGradient>
    <linearGradient
       id="linearGradient6850"
       osb:paint="solid">
      <stop
         style="stop-color:#ff3402;stop-opacity:1;"
         offset="0"
         id="stop6848" />
    </linearGradient>
    <inkscape:perspective
       sodipodi:type="inkscape:persp3d"
       inkscape:vp_x="0 : 33.866667 : 1"
       inkscape:vp_y="0 : 1000 : 0"
       inkscape:vp_z="67.733332 : 33.866667 : 1"
       inkscape:persp3d-origin="33.866666 : 22.577778 : 1"
       id="perspective2379" />
    <linearGradient
       id="linearGradient2287"
       osb:paint="solid">
      <stop
         style="stop-color:#9aadc8;stop-opacity:1;"
         offset="0"
         id="stop2285" />
    </linearGradient>
    <linearGradient
       inkscape:collect="always"
       xlink:href="#linearGradient8295"
       id="linearGradient8297"
       x1="65.617218"
       y1="233.83791"
       x2="3.2386432"
       y2="295.203"
       gradientUnits="userSpaceOnUse"
       gradientTransform="matrix(1.0720258,0,0,1.0720258,-2.4392733,-18.971443)" />
  </defs>
  <sodipodi:namedview
     id="base"
     pagecolor="#ffffff"
     bordercolor="#666666"
     borderopacity="1.0"
     inkscape:pageopacity="0.0"
     inkscape:pageshadow="2"
     inkscape:zoom="1"
     inkscape:cx="-111.23855"
     inkscape:cy="39.355986"
     inkscape:document-units="mm"
     inkscape:current-layer="layer1"
     showgrid="false"
     inkscape:window-width="1440"
     inkscape:window-height="878"
     inkscape:window-x="-8"
     inkscape:window-y="-8"
     inkscape:window-maximized="1"
     units="px"
     inkscape:snap-grids="false"
     inkscape:snap-to-guides="false"
     inkscape:snap-nodes="false"
     inkscape:snap-others="false" />
  <metadata
     id="metadata5">
    <rdf:RDF>
      <cc:Work
         rdf:about="">
        <dc:format>image/svg+xml</dc:format>
        <dc:type
           rdf:resource="http://purl.org/dc/dcmitype/StillImage" />
        <dc:title />
      </cc:Work>
    </rdf:RDF>
  </metadata>
  <g
     inkscape:label="Layer 1"
     inkscape:groupmode="layer"
     id="layer1"
     transform="translate(0,-229.26665)">
    <rect
       style="fill:url(#linearGradient8297);fill-opacity:1;fill-rule:nonzero;stroke:none;stroke-width:4.5;stroke-linecap:butt;stroke-linejoin:miter;stroke-miterlimit:0;stroke-dasharray:none;stroke-dashoffset:0;stroke-opacity:1;paint-order:stroke fill markers"
       id="rect7049"
       width="67.506355"
       height="67.506355"
       x="0.11348855"
       y="229.64474"
       ry="13.49375"
       rx="13.49375" />
    <path
       id="path7004-8"
       style="fill:#4e4021;fill-opacity:1;stroke:none;stroke-width:0.99999994;stroke-linecap:butt;stroke-linejoin:miter;stroke-miterlimit:0;stroke-dasharray:none;stroke-dashoffset:0;stroke-opacity:1;paint-order:stroke fill markers"
       d="m 15.439376,292.66824 c 0.02515,-0.1125 3.563028,-5.23379 7.86196,-11.38077 l 7.816246,-11.1763 11.112599,-0.0716 c 7.505289,-0.0485 11.099814,0.0206 11.073446,0.21066 -0.02157,0.15517 -2.434484,5.24471 -5.362106,11.30991 -2.927627,6.06517 -5.331852,11.09174 -5.342721,11.1701 -0.01101,0.0783 -6.136489,0.14258 -13.612468,0.14258 -7.475978,0 -13.572121,-0.092 -13.546973,-0.2044 z m 19.71897,-29.15753 c 1.871962,-2.76516 4.578424,-6.77889 6.014373,-8.91941 l 2.610806,-3.89183 h 9.251603 9.251601 l -0.421373,0.91991 c -0.231753,0.50593 -2.09877,4.48618 -4.148927,8.84504 l -3.727547,7.92517 -11.117073,0.0745 -11.117071,0.0745 z m -25.9081985,4.88755 c 0.010185,-0.0731 3.5013105,-4.08516 7.7581785,-8.91578 l 7.739774,-8.78301 h 8.777559 8.777553 l -6.290567,8.9048 -6.290564,8.90479 -10.2452,0.0111 c -5.63509,0.007 -10.2368803,-0.0488 -10.2267625,-0.12173 z M 25.560701,249.67699 c 0.08015,-0.13757 2.721081,-3.14603 5.868746,-6.68562 l 5.723033,-6.43564 7.563366,-0.004 7.563364,-0.004 -3.844942,5.36576 c -2.114723,2.95119 -4.278956,5.96161 -4.809404,6.68979 l -0.964466,1.32403 h -8.622676 c -4.94748,0 -8.560573,-0.10655 -8.476964,-0.24998 z"
       inkscape:connector-curvature="0" />
    <text
       xml:space="preserve"
       style="font-style:normal;font-weight:normal;font-size:10.58333302px;line-height:1.25;font-family:sans-serif;letter-spacing:0px;word-spacing:0px;fill:#000000;fill-opacity:1;stroke:none;stroke-width:0.26458332"
       x="117.59859"
       y="383.59531"
       id="text2377"><tspan
         sodipodi:role="line"
         id="tspan2375"
         x="117.59859"
         y="392.95908"
         style="stroke-width:0.26458332" /></text>
    <path
       inkscape:connector-curvature="0"
       id="path6996"
       d="m 24.84232,245.73442 c 0.09325,-0.13759 3.020157,-3.14604 6.504313,-6.68565 l 6.334824,-6.43562 7.563786,-0.004 7.563786,-0.004 -4.355034,5.36577 c -2.395279,2.95121 -4.845692,5.9616 -5.445364,6.68979 l -1.090332,1.32401 h -8.622676 c -4.947479,0 -8.550441,-0.10656 -8.453201,-0.24995 z"
       style="fill:#ff0255;fill-opacity:1;stroke:none;stroke-width:0.99999994;stroke-linecap:butt;stroke-linejoin:miter;stroke-miterlimit:0;stroke-dasharray:none;stroke-opacity:1;paint-order:stroke fill markers" />
    <path
       inkscape:connector-curvature="0"
       id="path6998"
       d="m 6.7520501,264.45567 c 0.017043,-0.0731 3.8896659,-4.08516 8.6057499,-8.91577 l 8.574721,-8.78302 h 8.77756 8.777552 l -7.137089,8.9048 -7.137094,8.90479 -10.246267,0.0111 c -5.63572,0.007 -10.2322473,-0.0488 -10.2151905,-0.12175 z"
       style="fill:#029cff;fill-opacity:1;stroke:none;stroke-width:0.99999994;stroke-linecap:butt;stroke-linejoin:miter;stroke-miterlimit:0;stroke-dasharray:none;stroke-opacity:1;paint-order:stroke fill markers" />
    <path
       inkscape:connector-curvature="0"
       id="path7000"
       d="m 33.124882,259.56813 c 2.134827,-2.76517 5.22285,-6.77889 6.862285,-8.91942 l 2.980779,-3.89183 h 9.251603 9.251601 l -0.508822,0.9199 c -0.279847,0.50593 -2.525247,4.4862 -4.989775,8.84506 l -4.48094,7.92516 -11.124153,0.0745 -11.124151,0.0745 z"
       style="fill:#02ff0e;fill-opacity:1;stroke:none;stroke-width:0.99999994;stroke-linecap:butt;stroke-linejoin:miter;stroke-miterlimit:0;stroke-dasharray:none;stroke-opacity:1;paint-order:stroke fill markers" />
    <path
       inkscape:connector-curvature="0"
       id="path7004"
       d="m 10.63408,288.72564 c 0.03583,-0.11249 4.060573,-5.23379 8.943862,-11.38076 l 8.87871,-11.1763 11.119414,-0.0716 c 7.509894,-0.0485 11.097864,0.0205 11.053421,0.21066 -0.03624,0.15516 -2.933066,5.24469 -6.437273,11.3099 -3.504203,6.06516 -6.386273,11.09174 -6.404592,11.17011 -0.01841,0.0783 -6.150042,0.14257 -13.626022,0.14257 -7.475979,0 -13.563373,-0.092 -13.527545,-0.2044 z"
       style="fill:#ffb502;fill-opacity:1;stroke:none;stroke-width:0.99999994;stroke-linecap:butt;stroke-linejoin:miter;stroke-miterlimit:0;stroke-dasharray:none;stroke-dashoffset:0;stroke-opacity:1;paint-order:stroke fill markers" />
  </g>
</svg>
